<svg xmlns="http://www.w3.org/2000/svg" xmlns:xlink="http://www.w3.org/1999/xlink" width="164" height="145" version="1.1" viewBox="0 0 164 145"><title>Group</title><desc>Created with Sketch.</desc><g id="Page-1" fill="none" fill-rule="evenodd" stroke="none" stroke-width="1"><g id="Group" fill="#1D1D1D" transform="translate(-8.000000, 0.000000)"><ellipse id="Oval" cx="26.555" cy="29.125" rx="15" ry="22" transform="translate(26.554973, 29.124792) rotate(-40.000000) translate(-26.554973, -29.124792)"/><ellipse id="Oval" cx="105.964" cy="29.127" rx="15" ry="22" transform="translate(105.963805, 29.127110) rotate(-40.000000) translate(-105.963805, -29.127110)"/><ellipse id="Oval" cx="66.464" cy="29.127" rx="15" ry="22" transform="translate(66.463805, 29.127110) rotate(40.000000) translate(-66.463805, -29.127110)"/><polygon id="Path" points="11 49.63 42.021 60.878 42.021 144.913 11 133.545"/><polygon id="Path" points="90.332 49.632 121.353 60.88 121.353 144.915 90.332 133.548"/><polygon id="Path" points="50.832 49.632 81.853 60.88 81.853 144.915 50.832 133.548" transform="translate(66.342559, 97.273890) scale(-1, 1) translate(-66.342559, -97.273890)"/><path id="Path" d="M128.831811,45.8204628 L140.153875,49.8348755 L140.153875,34.3841149 C140.060299,33.5390873 139.953759,32.9510611 139.834255,32.6200365 C139.199271,30.8611346 138.036512,29.3361676 136.908275,28.6706052 C135.461537,27.8171548 132.769382,27.7255012 128.831811,28.3956442 L128.831811,0 C135.885662,0.755548248 140.802177,1.60520233 143.581357,2.54896224 C150.371367,4.85472796 155.600361,8.78040871 158.770393,11.8262511 C162.002542,14.9317768 166.565003,20.2730255 169.048416,28.0297877 C170.013535,31.0442659 170.765769,36.3862342 171.305119,44.0556926 L171.305119,144.915462 L140.283623,133.547515 C140.283623,102.593987 140.283623,83.5468073 140.283623,76.4059752 C140.283623,76.0977863 128.831811,71.2479703 128.831811,70.9535832 C128.831811,66.7597004 128.831811,58.3819937 128.831811,45.8204628 Z" transform="translate(150.068465, 72.457731) scale(-1, 1) translate(-150.068465, -72.457731)"/></g></g></svg>