<svg xmlns="http://www.w3.org/2000/svg" xmlns:xlink="http://www.w3.org/1999/xlink" width="124" height="113" version="1.1" viewBox="0 0 124 113"><title>manage items icon</title><desc>Created with Sketch.</desc><g id="Search-Results-2.0" fill="none" fill-rule="evenodd" stroke="none" stroke-width="1"><g id="Modal-Window---Sign-up-Prompt" fill="#AFAFAF" transform="translate(-799.000000, -897.000000)"><g id="Modal-Window" transform="translate(289.000000, 250.000000)"><g id="Group-2" transform="translate(464.000000, 647.000000)"><path id="manage-items-icon" d="M169.020434,23.5826087 C169.455694,23.5826087 169.808696,23.9043923 169.808696,24.3030194 L169.808696,24.3030194 L169.808696,112.279589 C169.808696,112.678216 169.455694,113 169.020434,113 L169.020434,113 L46.7883116,113 C46.3530515,113 46,112.678216 46,112.279589 L46,112.279589 L46,24.3030194 C46,23.9091997 46.3530515,23.5826087 46.7883116,23.5826087 L46.7883116,23.5826087 Z M116.832459,41.6131071 L112.307648,47.6609601 C110.049755,47.3965956 108.050133,47.2813435 106.158781,47.5750116 L101.460291,41.3982356 C101.09375,40.8402031 100.168939,40.6526732 99.6106685,41.023176 L89.1952604,47.134193 C88.2287196,47.6153908 87.7787196,48.3948137 88.4035308,49.1019588 L91.4272093,56.390243 C90.9772093,57.1696658 90.1189389,58.0597838 89.6689389,58.8392067 C89.2189389,59.6186296 88.6189389,60.65786 88.4272093,61.5863954 L80.7535308,62.3521475 C80.08699,62.3137301 79.3787196,62.9440405 79.4452604,64.0216883 L79.3606685,76.0972048 C79.1689389,77.0257402 79.7937501,77.7328853 80.460291,77.7713026 L88.3087807,78.4921185 C89.0001327,80.2769114 90.2080255,82.3599293 91.4576479,83.7742195 L88.3324592,90.9765551 C87.8824592,91.7559779 88.099,92.5738182 88.8738112,93.0211556 L99.2046273,98.9856551 C99.9794386,99.4329926 100.795979,99.2116023 101.245979,98.4321794 L105.920791,92.1245188 C108.178683,92.3888833 110.178306,92.5041354 112.069658,92.2104673 L116.618148,98.6470509 C116.984688,99.2050834 117.9095,99.3926133 118.46777,99.0221105 L128.883178,92.9110935 C129.441448,92.5405908 129.891448,91.7611679 129.674908,90.9433277 L126.651229,83.6550435 C127.101229,82.8756207 127.9595,81.9855027 128.4095,81.2060798 C128.8595,80.4266569 129.4595,79.3874265 129.651229,78.4588911 L137.324908,77.693139 C137.991448,77.7315564 138.699719,77.101246 138.633178,76.0235982 L138.71777,63.9480817 C138.9095,63.0195463 138.284688,62.3124012 137.618148,62.2739839 L129.769658,61.553168 C129.078306,59.7683751 127.870413,57.6853572 126.620791,56.271067 L129.745979,49.0687314 C130.195979,48.2893086 129.979439,47.4714683 129.204627,47.0241309 L118.873811,41.0596314 C118.099,40.6122939 117.282459,40.8336842 116.832459,41.6131071 Z M115.5,58.7416698 C121.692082,62.3166698 123.83333,70.3079184 120.25833,76.5 C116.68333,82.6920816 108.692082,84.8333302 102.5,81.2583302 C96.3079184,77.6833302 94.1666698,69.6920816 97.7416698,63.5 C101.31667,57.3079184 109.307918,55.1666698 115.5,58.7416698 Z M56.8086957,0 L56.8086957,5.89565217 L158.017391,5.89565217 L158.017391,0 L56.8086957,0 Z M51.8956522,11.7913043 L51.8956522,17.6869565 L164.895652,17.6869565 L164.895652,11.7913043 L51.8956522,11.7913043 Z"/></g></g></g></g></svg>