<?xml version="1.0" encoding="UTF-8"?>
<svg width="120px" height="112px" viewBox="0 0 120 112" version="1.1" xmlns="http://www.w3.org/2000/svg" xmlns:xlink="http://www.w3.org/1999/xlink">
    <!-- Generator: Sketch 63.1 (92452) - https://sketch.com -->
    <title>favorites list icon</title>
    <desc>Created with Sketch.</desc>
    <g id="Search-Results-2.0" stroke="none" stroke-width="1" fill="none" fill-rule="evenodd">
        <g id="Modal-Window---Sign-up-Prompt" transform="translate(-515.000000, -898.000000)" fill="#AFAFAF" fill-rule="nonzero">
            <g id="Modal-Window" transform="translate(289.000000, 250.000000)">
                <g id="Group" transform="translate(174.000000, 648.000000)">
                    <g id="favorites-list-icon" transform="translate(52.000000, 0.000000)">
                        <path d="M120,0 L120,112 L0,112 L0,0 L120,0 Z M32,74 L28.2922014,81.2419997 L20,82.4026985 L26,88.0425532 L24.5844028,96 L32,92.2419997 L39.4155972,96 L38,88.0425532 L44,82.4026985 L35.7077986,81.2419997 L32,74 Z M96,83 L50,83 L50,90 L96,90 L96,83 Z M32,44 L28.2922014,51.2419997 L20,52.4026985 L26,58.0406504 L24.5844028,66 L32,62.2419997 L39.4155972,66 L38,58.0406504 L44,52.4026985 L35.7077986,51.2419997 L32,44 Z M96,54 L50,54 L50,61 L96,61 L96,54 Z M32,15 L28.2922014,22.2419997 L20,23.4026985 L26,29.0406504 L24.5844028,37 L32,33.2419997 L39.4155972,37 L38,29.0406504 L44,23.4026985 L35.7077986,22.2419997 L32,15 Z M96,26 L50,26 L50,33 L96,33 L96,26 Z" id="Shape"></path>
                    </g>
                </g>
            </g>
        </g>
    </g>
</svg>