<svg xmlns="http://www.w3.org/2000/svg" xmlns:xlink="http://www.w3.org/1999/xlink" width="125" height="107" version="1.1" viewBox="0 0 125 107"><title>saved search icon</title><desc>Created with Sketch.</desc><g id="Search-Results-2.0" fill="none" fill-rule="evenodd" stroke="none" stroke-width="1"><g id="Modal-Window---Sign-up-Prompt" fill="#AFAFAF" fill-rule="nonzero" transform="translate(-1088.000000, -903.000000)"><g id="Modal-Window" transform="translate(289.000000, 250.000000)"><g id="Group-3" transform="translate(753.000000, 653.000000)"><path id="saved-search-icon" d="M96,9.73474271e-05 C97.6612687,-0.0089383336 99.2580073,0.61136532 100.4375,1.72408412 L100.4375,1.72408412 L111.0625,11.8890747 L164.75,11.8890747 C168.20178,11.8890747 171,14.5504906 171,17.8335136 L171,17.8335136 L171,101.055658 C171,104.338681 168.20178,107.000097 164.75,107.000097 L164.75,107.000097 L52.25,107.000097 C48.7982203,107.000097 46,104.338681 46,101.055658 L46,101.055658 L46,5.94463575 C46,2.66161279 48.7982203,9.73474271e-05 52.25,9.73474271e-05 L52.25,9.73474271e-05 Z M103.96,31.9999945 C91,31.9999945 80.5,42.315784 80.5,55.0484156 C80.5,67.7810472 91,78.0968366 103.96,78.0968366 C108.64,78.0968366 113.02,76.7410472 116.68,74.3831524 L130.6,87.9999945 L137.5,81.2210472 L123.58,67.5452577 C125.98,63.9494682 127.36,59.6463103 127.36,55.0484156 C127.42,42.315784 116.86,31.9999945 103.96,31.9999945 Z M104,40.9999945 C112.013158,40.9999945 118.5,47.4868366 118.5,55.4999945 C118.5,63.4495559 111.949561,69.9999945 104,69.9999945 C95.9868421,69.9999945 89.5,63.5131524 89.5,55.4999945 C89.5,47.4868366 95.9868421,40.9999945 104,40.9999945 Z"/></g></g></g></g></svg>